<mxfile host="app.diagrams.net" modified="2024-08-18T20:56:29.366Z" agent="Mozilla/5.0 (Windows NT 10.0; Win64; x64) AppleWebKit/537.36 (KHTML, like Gecko) Chrome/127.0.0.0 Safari/537.36 Edg/127.0.0.0" etag="8u01XepsgapF8eaMqiTM" version="24.6.4" type="device">
  <diagram name="Page-1" id="c-O6qBmj9A8lLsTM6Dgl">
    <mxGraphModel dx="1345" dy="596" grid="1" gridSize="10" guides="1" tooltips="1" connect="1" arrows="1" fold="1" page="1" pageScale="1" pageWidth="850" pageHeight="1100" math="0" shadow="0">
      <root>
        <mxCell id="0" />
        <mxCell id="1" parent="0" />
        <mxCell id="tx6jsVxLEYG0F0Y0dAkg-2" value="" style="shape=image;verticalLabelPosition=bottom;labelBackgroundColor=default;verticalAlign=top;aspect=fixed;imageAspect=0;image=data:image/svg+xml,PHN2ZyB4bWxucz0iaHR0cDovL3d3dy53My5vcmcvMjAwMC9zdmciIGZpbGw9Im5vbmUiIHZpZXdCb3g9IjAgMCAzMiAzMiIgaGVpZ2h0PSI4MDBweCIgd2lkdGg9IjgwMHB4Ij4mI3hhOzxwYXRoIGZpbGw9IiM1M0MxREUiIGQ9Ik0xOC42Nzg5IDE1Ljk3NTlDMTguNjc4OSAxNC41NDE1IDE3LjQ3OTYgMTMuMzc4NSAxNiAxMy4zNzg1QzE0LjUyMDYgMTMuMzc4NSAxMy4zMjExIDE0LjU0MTUgMTMuMzIxMSAxNS45NzU5QzEzLjMyMTEgMTcuNDEwNSAxNC41MjA2IDE4LjU3MzQgMTYgMTguNTczNEMxNy40Nzk2IDE4LjU3MzQgMTguNjc4OSAxNy40MTA1IDE4LjY3ODkgMTUuOTc1OVoiLz4mI3hhOzxwYXRoIGZpbGw9IiM1M0MxREUiIGQ9Ik0yNC43MDA0IDExLjE1MzdDMjUuMjY2MSA4LjkyNDc4IDI1Ljk3NzIgNC43OTE0OCAyMy40NzA0IDMuMzkwMTZDMjAuOTc1MyAxLjk5NDk1IDE3LjcyODQgNC42Njg0MyAxNi4wMTM5IDYuMjczMThDMTQuMzA0NCA0LjY4NDQyIDEwLjk2NjMgMi4wMjIzNyA4LjQ2MTYzIDMuNDI4MTRDNS45Njc1MSA0LjgyODAzIDYuNzM2NjQgOC44OTI4IDcuMzE0OSAxMS4xMzU3QzQuOTg4MzEgMTEuNzc2NCAxIDEzLjE1NjQgMSAxNS45NzU5QzEgMTguNzg3NCA0Ljk4NDE2IDIwLjI4ODggNy4yOTY5OCAyMC45Mjg5QzYuNzE2NTggMjMuMTg0MiA1Ljk4NTk2IDI3LjE5MDkgOC40ODMyNyAyOC41ODc3QzEwLjk5NzMgMjkuOTkzMiAxNC4zMjUgMjcuMzk0NSAxNi4wNTU0IDI1Ljc3MjJDMTcuNzgwOSAyNy4zODY0IDIwLjk5NjYgMzAuMDAyMSAyMy40OTIyIDI4LjYwMTRDMjUuOTk1NiAyNy4xOTYzIDI1LjM0MzYgMjMuMTE4NCAyNC43NjUzIDIwLjg2MjVDMjcuMDA3MyAyMC4yMjEgMzEgMTguNzUyMyAzMSAxNS45NzU5QzMxIDEzLjE4MzUgMjYuOTkwMyAxMS43OTIzIDI0LjcwMDQgMTEuMTUzN1pNMjQuNDE2MiAxOS42NjdDMjQuMDM2NSAxOC41MDE2IDIzLjUyNCAxNy4yNjIzIDIyLjg5NzEgMTUuOTgyMUMyMy40OTU1IDE0LjczMjEgMjMuOTg4MSAxMy41MDg4IDI0LjM1NzIgMTIuMzUwOUMyNi4wMzU5IDEyLjgyMjggMjkuNzE4NSAxMy45MDEzIDI5LjcxODUgMTUuOTc1OUMyOS43MTg1IDE4LjA3IDI2LjE4NDYgMTkuMTU4NyAyNC40MTYyIDE5LjY2N1pNMjIuODUgMjcuNTI2QzIwLjk4OCAyOC41NzEgMTguMjIyMSAyNi4wNjk2IDE2Ljk0NzggMjQuODgwOUMxNy43OTMyIDIzLjk4NDQgMTguNjM4IDIyLjk0MjIgMTkuNDYyNSAyMS43ODQ5QzIwLjkxMjkgMjEuNjYwMiAyMi4yODMgMjEuNDU2MiAyMy41MjU2IDIxLjE3NzdDMjMuOTMyNiAyMi43NzM0IDI0LjcyMDIgMjYuNDc2MyAyMi44NSAyNy41MjZaTTkuMTIzNjIgMjcuNTExMUM3LjI2MTQzIDI2LjQ3IDguMTEyNTggMjIuODk0NiA4LjUzOTU3IDIxLjIzMzNDOS43NjgzNCAyMS40OTY5IDExLjEyODYgMjEuNjg2NSAxMi41ODI0IDIxLjgwMDhDMTMuNDEyMyAyMi45MzMyIDE0LjI4MTYgMjMuOTc0MSAxNS4xNTc2IDI0Ljg4NTdDMTQuMDc1MyAyNS45MDA4IDEwLjk5NDUgMjguNTU3IDkuMTIzNjIgMjcuNTExMVpNMi4yODE0OSAxNS45NzU5QzIuMjgxNDkgMTMuODc0IDUuOTQyMDcgMTIuODAzMyA3LjY1OTA0IDEyLjMzMjZDOC4wMzQ1MSAxMy41MTY1IDguNTI2OTUgMTQuNzU0NCA5LjEyMTIzIDE2LjAwNjJDOC41MTkyNSAxNy4yNzY2IDguMDE5NzcgMTguNTM0MSA3LjY0MDg1IDE5LjczMkM2LjAwMzY5IDE5LjI3NzYgMi4yODE0OSAxOC4wNzkxIDIuMjgxNDkgMTUuOTc1OVpNOS4xMDM3IDQuNTAzNTRDMTAuOTczNSAzLjQ1NDE2IDEzLjg3NDcgNi4wMDk4MyAxNS4xMTU5IDcuMTYwMTNDMTQuMjQ0NCA4LjA2NzU0IDEzLjM4MzEgOS4xMDA2IDEyLjU2MDMgMTAuMjI2NUMxMS4xNDk0IDEwLjM1MzMgOS43OTg3NSAxMC41NTY5IDguNTU3MDkgMTAuODI5N0M4LjA5MTI1IDkuMDIwNzEgNy4yMzU5MiA1LjU1MTc5IDkuMTAzNyA0LjUwMzU0Wk0yMC4zNzkzIDExLjU3NzFDMjEuMzM2NSAxMS42OTQyIDIyLjI1MzYgMTEuODUgMjMuMTE0NyAxMi4wNDA2QzIyLjg1NjIgMTIuODQ0IDIyLjUzNCAxMy42ODQxIDIyLjE1NDUgMTQuNTQ1M0MyMS42MDQ0IDEzLjUzMzMgMjEuMDEzOSAxMi41NDE2IDIwLjM3OTMgMTEuNTc3MVpNMTYuMDE0MyA4LjA0ODFDMTYuNjA1NCA4LjY2ODk3IDE3LjE5NzQgOS4zNjIzIDE3Ljc3OTggMTAuMTE0NUMxNi41OTg1IDEwLjA2MDMgMTUuNDE1MyAxMC4wNjAxIDE0LjIzNCAxMC4xMTM3QzE0LjgxNjkgOS4zNjg0OCAxNS40MTQgOC42NzYxOCAxNi4wMTQzIDguMDQ4MVpNOS44NTY1IDE0LjU0NDRDOS40ODMyOSAxMy42ODYyIDkuMTYzOTggMTIuODQyNCA4LjkwMzIyIDEyLjAyNzVDOS43NTkxOCAxMS44NDE4IDEwLjY3MiAxMS42OSAxMS42MjMgMTEuNTc0OEMxMC45ODY2IDEyLjUzNzIgMTAuMzk3MSAxMy41Mjg1IDkuODU2NSAxNC41NDQ0Wk0xMS42NTAzIDIwLjQ2NTdDMTAuNjY3OSAyMC4zNTk0IDkuNzQxMjYgMjAuMjE1MyA4Ljg4NTU2IDIwLjAzNDdDOS4xNTA0NCAxOS4yMDU1IDkuNDc2NzggMTguMzQzNSA5Ljg1Nzk2IDE3LjQ2NjhDMTAuNDA2IDE4LjQ5MzMgMTEuMDA0NSAxOS40OTQyIDExLjY1MDMgMjAuNDY1N1pNMTYuMDQ5OCAyMy45OTE1QzE1LjQ0MjQgMjMuMzU2IDE0LjgzNjUgMjIuNjUzMSAxNC4yNDQ4IDIxLjg5NzFDMTUuNDMyOCAyMS45NDIzIDE2LjYyMzEgMjEuOTQyNCAxNy44MTEgMjEuODkxQzE3LjIyNjggMjIuNjYwOCAxNi42MzY5IDIzLjM2NDcgMTYuMDQ5OCAyMy45OTE1Wk0yMi4xNjY3IDE3LjQyMjJDMjIuNTY3NyAxOC4zMDg0IDIyLjkwNTcgMTkuMTY1NyAyMy4xNzQyIDE5Ljk4MDlDMjIuMzA0MyAyMC4xNzM0IDIxLjM2NTIgMjAuMzI4NCAyMC4zNzU3IDIwLjQ0MzVDMjEuMDE1IDE5LjQ2MDcgMjEuNjE0OSAxOC40NTM2IDIyLjE2NjcgMTcuNDIyMlpNMTguNzQ3MyAyMC41OTQxQzE2LjkzMDEgMjAuNzIgMTUuMTAxNiAyMC43MTg2IDEzLjI4MzggMjAuNjA0NEMxMi4yNTA5IDE5LjE0MTUgMTEuMzMxNCAxNy42MDMgMTAuNTM3NyAxNi4wMDU4QzExLjMyNzYgMTQuNDExOSAxMi4yNDA0IDEyLjg3NjQgMTMuMjY4NCAxMS40MTU4QzE1LjA4NzUgMTEuMjgyNSAxNi45MTc4IDExLjI4MjEgMTguNzM2OSAxMS40MTY2QzE5Ljc1NjEgMTIuODc3MSAyMC42Njc1IDE0LjQwODYgMjEuNDc1NyAxNS45ODgxQzIwLjY3NzEgMTcuNTgxMiAxOS43NTk1IDE5LjExOTggMTguNzQ3MyAyMC41OTQxWk0yMi44MzAzIDQuNDY2NkMyNC43MDA2IDUuNTEyNTQgMjMuODY4MSA5LjIyNzI2IDIzLjQ1OTUgMTAuODQyNkMyMi4yMTQ5IDEwLjU2NDEgMjAuODYzMyAxMC4zNTY5IDE5LjQ0ODMgMTAuMjI4MUMxOC42MjM5IDkuMDkwMDQgMTcuNzY5OCA4LjA1NTE4IDE2LjkxMjQgNy4xNTk0OUMxOC4xNjk1IDUuOTg0NDEgMjAuOTc4MSAzLjQzMDg5IDIyLjgzMDMgNC40NjY2WiIgY2xpcC1ydWxlPSJldmVub2RkIiBmaWxsLXJ1bGU9ImV2ZW5vZGQiLz4mI3hhOzwvc3ZnPg==;" vertex="1" parent="1">
          <mxGeometry x="130" y="210" width="70" height="70" as="geometry" />
        </mxCell>
        <mxCell id="tx6jsVxLEYG0F0Y0dAkg-4" value="" style="shape=image;verticalLabelPosition=bottom;labelBackgroundColor=default;verticalAlign=top;aspect=fixed;imageAspect=0;image=data:image/svg+xml,PHN2ZyB4bWxucz0iaHR0cDovL3d3dy53My5vcmcvMjAwMC9zdmciIHZpZXdCb3g9IjAgMCAxMDI0IDEwMjQiIGhlaWdodD0iODAwcHgiIHdpZHRoPSI4MDBweCI+JiN4YTsgICA8Y2lyY2xlIHN0eWxlPSJmaWxsOiMxM2FhNTIiIHI9IjUxMiIgY3k9IjUxMiIgY3g9IjUxMiIvPiYjeGE7ICAgPHBhdGggc3R5bGU9ImZpbGw6I2ZmZiIgZD0iTTY0OC44NiA0NDkuNDRjLTMyLjM0LTE0Mi43My0xMDguNzctMTg5LjY2LTExNy0yMDcuNTktOS0xMi42NS0xOC4xMi0zNS4xNS0xOC4xMi0zNS4xNS0uMTUtLjM4LS4zOS0xLjA1LS42Ny0xLjctLjkzIDEyLjY1LTEuNDEgMTcuNTMtMTMuMzcgMzAuMjktMTguNTIgMTQuNDgtMTEzLjU0IDk0LjIxLTEyMS4yNyAyNTYuMzctNy4yMSAxNTEuMjQgMTA5LjI1IDI0MS4zNiAxMjUgMjUyLjg1bDEuNzkgMS4yN3YtLjExYy4xLjc2IDUgMzYgOC40NCA3My4zNEg1MjZhNzI2LjY4IDcyNi42OCAwIDAgMSAxMy03OC41M2wxLS42NWEyMDQuNDggMjA0LjQ4IDAgMCAwIDIwLjExLTE2LjQ1bC43Mi0uNjVjMzMuNDgtMzAuOTMgOTMuNjctMTAyLjQ3IDkzLjA4LTIxNi41M2EzNDcuMDcgMzQ3LjA3IDAgMCAwLTUuMDUtNTYuNzZ6TTUxMi4zNSA2NTkuMTJzMC0yMTIuMTIgNy0yMTIuMDhjNS40NiAwIDEyLjUzIDI3My42MSAxMi41MyAyNzMuNjEtOS43Mi0xLjE3LTE5LjUzLTQ1LjAzLTE5LjUzLTYxLjUzeiIvPiYjeGE7PC9zdmc+;" vertex="1" parent="1">
          <mxGeometry x="365" y="255" width="60" height="60" as="geometry" />
        </mxCell>
        <mxCell id="tx6jsVxLEYG0F0Y0dAkg-5" value="" style="shape=image;verticalLabelPosition=bottom;labelBackgroundColor=default;verticalAlign=top;aspect=fixed;imageAspect=0;image=data:image/svg+xml,PHN2ZyB4bWxucz0iaHR0cDovL3d3dy53My5vcmcvMjAwMC9zdmciIHByZXNlcnZlQXNwZWN0UmF0aW89InhNaW5ZTWluIG1lZXQiIHZpZXdCb3g9Ii00IDAgMjY0IDI2NCIgaGVpZ2h0PSI4MDBweCIgd2lkdGg9IjgwMHB4Ij48cGF0aCBkPSJNMjU1LjAwOCAxNTguMDg2Yy0xLjUzNS00LjY0OS01LjU1Ni03Ljg4Ny0xMC43NTYtOC42NjQtMi40NTItLjM2Ni01LjI2LS4yMS04LjU4My40NzUtNS43OTIgMS4xOTUtMTAuMDg5IDEuNjUtMTMuMjI1IDEuNzM4IDExLjgzNy0xOS45ODUgMjEuNDYyLTQyLjc3NSAyNy4wMDMtNjQuMjI4IDguOTYtMzQuNjg5IDQuMTcyLTUwLjQ5Mi0xLjQyMy01Ny42NEMyMzMuMjE3IDEwLjg0NyAyMTEuNjE0LjY4MyAxODUuNTUyLjM3MmMtMTMuOTAzLS4xNy0yNi4xMDggMi41NzUtMzIuNDc1IDQuNTQ5LTUuOTI4LTEuMDQ2LTEyLjMwMi0xLjYzLTE4Ljk5LTEuNzM4LTEyLjUzNy0uMi0yMy42MTQgMi41MzMtMzMuMDc5IDguMTUtNS4yNC0xLjc3Mi0xMy42NS00LjI3LTIzLjM2Mi01Ljg2NC0yMi44NDItMy43NS00MS4yNTItLjgyOC01NC43MTggOC42ODVDNi42MjIgMjUuNjcyLS45MzcgNDUuNjg0LjQ2MSA3My42MzRjLjQ0NCA4Ljg3NCA1LjQwOCAzNS44NzQgMTMuMjI0IDYxLjQ4IDQuNDkyIDE0LjcxOCA5LjI4MiAyNi45NCAxNC4yMzcgMzYuMzMgNy4wMjcgMTMuMzE1IDE0LjU0NiAyMS4xNTYgMjIuOTg3IDIzLjk3MiA0LjczMSAxLjU3NiAxMy4zMjcgMi42OCAyMi4zNjgtNC44NSAxLjE0NiAxLjM4OCAyLjY3NSAyLjc2NyA0LjcwNCA0LjA0OCAyLjU3NyAxLjYyNSA1LjcyOCAyLjk1MyA4Ljg3NSAzLjc0IDExLjM0MSAyLjgzNSAyMS45NjQgMi4xMjYgMzEuMDI3LTEuODQ4LjA1NiAxLjYxMi4wOTkgMy4xNTIuMTM1IDQuNDgyLjA2IDIuMTU3LjEyIDQuMjcyLjE5OSA2LjI1LjUzNyAxMy4zNzQgMS40NDcgMjMuNzczIDQuMTQzIDMxLjA0OS4xNDguNC4zNDcgMS4wMS41NTcgMS42NTcgMS4zNDUgNC4xMTggMy41OTQgMTEuMDEyIDkuMzE2IDE2LjQxMSA1LjkyNSA1LjU5MyAxMy4wOTIgNy4zMDggMTkuNjU2IDcuMzA4IDMuMjkyIDAgNi40MzMtLjQzMiA5LjE4OC0xLjAyMiA5LjgyLTIuMTA1IDIwLjk3My01LjMxMSAyOS4wNDEtMTYuNzk5IDcuNjI4LTEwLjg2IDExLjMzNi0yNy4yMTcgMTIuMDA3LTUyLjk5LjA4Ny0uNzI5LjE2Ny0xLjQyNS4yNDQtMi4wODhsLjE2LTEuMzYyIDEuNzk3LjE1OC40NjMuMDMxYzEwLjAwMi40NTYgMjIuMjMyLTEuNjY1IDI5Ljc0My01LjE1NCA1LjkzNS0yLjc1NCAyNC45NTQtMTIuNzk1IDIwLjQ3Ni0yNi4zNTEiLz48cGF0aCBmaWxsPSIjMzM2NzkxIiBkPSJNMjM3LjkwNiAxNjAuNzIyYy0yOS43NCA2LjEzNS0zMS43ODUtMy45MzQtMzEuNzg1LTMuOTM0IDMxLjQtNDYuNTkzIDQ0LjUyNy0xMDUuNzM2IDMzLjItMTIwLjIxMS0zMC45MDQtMzkuNDg1LTg0LjM5OS0yMC44MTEtODUuMjkyLTIwLjMyN2wtLjI4Ny4wNTJjLTUuODc2LTEuMjItMTIuNDUxLTEuOTQ2LTE5Ljg0Mi0yLjA2Ny0xMy40NTYtLjIyLTIzLjY2NCAzLjUyOC0zMS40MSA5LjQwMiAwIDAtOTUuNDMtMzkuMzE0LTkwLjk5MSA0OS40NDQuOTQ0IDE4Ljg4MiAyNy4wNjQgMTQyLjg3MyA1OC4yMTggMTA1LjQyMiAxMS4zODctMTMuNjk1IDIyLjM5LTI1LjI3NCAyMi4zOS0yNS4yNzQgNS40NjQgMy42MyAxMi4wMDYgNS40ODIgMTguODY0IDQuODE3bC41MzMtLjQ1MmMtLjE2NiAxLjctLjA5IDMuMzYzLjIxMyA1LjMzMi04LjAyNiA4Ljk2Ny01LjY2NyAxMC41NDEtMjEuNzExIDEzLjg0NC0xNi4yMzUgMy4zNDYtNi42OTggOS4zMDItLjQ3MSAxMC44NiA3LjU0OSAxLjg4NyAyNS4wMTMgNC41NjEgMzYuODEzLTExLjk1OGwtLjQ3IDEuODg1YzMuMTQ0IDIuNTE5IDUuMzUyIDE2LjM4MyA0Ljk4MiAyOC45NTItLjM3IDEyLjU2OC0uNjE3IDIxLjE5NyAxLjg2IDI3LjkzNyAyLjQ3OSA2Ljc0IDQuOTQ4IDIxLjkwNSAyNi4wNCAxNy4zODYgMTcuNjIzLTMuNzc3IDI2Ljc1Ni0xMy41NjQgMjguMDI3LTI5Ljg5LjkwMS0xMS42MDYgMi45NDItOS44OSAzLjA3LTIwLjI2N2wxLjYzNy00LjkxMmMxLjg4Ny0xNS43MzMuMy0yMC44MDkgMTEuMTU3LTE4LjQ0OGwyLjY0LjIzMmM3Ljk5LjM2MyAxOC40NS0xLjI4NiAyNC41ODktNC4xMzkgMTMuMjE4LTYuMTM0IDIxLjA1OC0xNi4zNzcgOC4wMjQtMTMuNjg2aC4wMDIiLz48cGF0aCBmaWxsPSIjRkZGIiBkPSJNMTA4LjA3NiA4MS41MjVjLTIuNjgtLjM3My01LjEwNy0uMDI4LTYuMzM1LjkwMi0uNjkuNTIzLS45MDQgMS4xMjktLjk2MiAxLjU0Ni0uMTU0IDEuMTA1LjYyIDIuMzI3IDEuMDk2IDIuOTU3IDEuMzQ2IDEuNzg0IDMuMzEyIDMuMDEgNS4yNTggMy4yOC4yODIuMDQuNTYzLjA1OC44NDIuMDU4IDMuMjQ1IDAgNi4xOTYtMi41MjcgNi40NTYtNC4zOTIuMzI1LTIuMzM2LTMuMDY2LTMuODkzLTYuMzU1LTQuMzVNMTk2Ljg2IDgxLjU5OWMtLjI1Ni0xLjgzMS0zLjUxNC0yLjM1My02LjYwNi0xLjkyMy0zLjA4OC40My02LjA4MiAxLjgyNC01LjgzMiAzLjY1OS4yIDEuNDI3IDIuNzc3IDMuODYzIDUuODI3IDMuODYzLjI1OCAwIC41MTgtLjAxNy43OC0uMDU0IDIuMDM2LS4yODIgMy41My0xLjU3NSA0LjI0LTIuMzIgMS4wOC0xLjEzNiAxLjcwNi0yLjQwMiAxLjU5MS0zLjIyNSIvPjxwYXRoIGZpbGw9IiNGRkYiIGQ9Ik0yNDcuODAyIDE2MC4wMjVjLTEuMTM0LTMuNDI5LTQuNzg0LTQuNTMyLTEwLjg0OC0zLjI4LTE4LjAwNSAzLjcxNi0yNC40NTMgMS4xNDItMjYuNTctLjQxNyAxMy45OTUtMjEuMzIgMjUuNTA4LTQ3LjA5MiAzMS43MTktNzEuMTM3IDIuOTQyLTExLjM5IDQuNTY3LTIxLjk2OCA0LjctMzAuNTkuMTQ3LTkuNDYzLTEuNDY1LTE2LjQxNy00Ljc4OS0yMC42NjUtMTMuNDAyLTE3LjEyNS0zMy4wNzItMjYuMzExLTU2Ljg4Mi0yNi41NjMtMTYuMzY5LS4xODQtMzAuMTk5IDQuMDA1LTMyLjg4IDUuMTgzLTUuNjQ2LTEuNDA0LTExLjgwMS0yLjI2Ni0xOC41MDItMi4zNzYtMTIuMjg4LS4xOTktMjIuOTEgMi43NDMtMzEuNzA0IDguNzQtMy44Mi0xLjQyMi0xMy42OTItNC44MTEtMjUuNzY1LTYuNzU2LTIwLjg3Mi0zLjM2LTM3LjQ1OC0uODE0LTQ5LjI5NCA3LjU3MS0xNC4xMjMgMTAuMDA2LTIwLjY0MyAyNy44OTItMTkuMzggNTMuMTYuNDI1IDguNTAxIDUuMjY5IDM0LjY1MyAxMi45MTMgNTkuNjk4IDEwLjA2MiAzMi45NjQgMjEgNTEuNjI1IDMyLjUwOCA1NS40NjQgMS4zNDcuNDQ5IDIuOS43NjMgNC42MTMuNzYzIDQuMTk4IDAgOS4zNDUtMS44OTIgMTQuNy04LjMzYTUyOS44MzIgNTI5LjgzMiAwIDAgMSAyMC4yNjEtMjIuOTI2YzQuNTI0IDIuNDI4IDkuNDk0IDMuNzg0IDE0LjU3NyAzLjkyLjAxLjEzMy4wMjMuMjY2LjAzNS4zOThhMTE3LjY2IDExNy42NiAwIDAgMC0yLjU3IDMuMTc1Yy0zLjUyMiA0LjQ3MS00LjI1NSA1LjQwMi0xNS41OTIgNy43MzYtMy4yMjUuNjY2LTExLjc5IDIuNDMxLTExLjkxNiA4LjQzNS0uMTM2IDYuNTYgMTAuMTI1IDkuMzE1IDExLjI5NCA5LjYwNyA0LjA3NCAxLjAyIDcuOTk5IDEuNTIzIDExLjc0MiAxLjUyMyA5LjEwMyAwIDE3LjExNC0yLjk5MiAyMy41MTYtOC43ODEtLjE5NyAyMy4zODYuNzc4IDQ2LjQzIDMuNTg2IDUzLjQ1MSAyLjMgNS43NDggNy45MTggMTkuNzk1IDI1LjY2NCAxOS43OTQgMi42MDQgMCA1LjQ3LS4zMDMgOC42MjMtLjk3OSAxOC41MjEtMy45NyAyNi41NjQtMTIuMTU2IDI5LjY3NS0zMC4yMDMgMS42NjUtOS42NDUgNC41MjItMzIuNjc2IDUuODY2LTQ1LjAzIDIuODM2Ljg4NSA2LjQ4NyAxLjI5IDEwLjQzNCAxLjI4OSA4LjIzMiAwIDE3LjczMS0xLjc0OSAyMy42ODgtNC41MTQgNi42OTItMy4xMDggMTguNzY4LTEwLjczNCAxNi41NzgtMTcuMzZ6bS00NC4xMDYtODMuNDhjLS4wNjEgMy42NDctLjU2MyA2Ljk1OC0xLjA5NSAxMC40MTQtLjU3MyAzLjcxNy0xLjE2NSA3LjU2LTEuMzE0IDEyLjIyNS0uMTQ3IDQuNTQuNDIgOS4yNi45NjggMTMuODI1IDEuMTA4IDkuMjIgMi4yNDUgMTguNzEyLTIuMTU2IDI4LjA3OGEzNi41MDggMzYuNTA4IDAgMCAxLTEuOTUtNC4wMDljLS41NDctMS4zMjYtMS43MzUtMy40NTYtMy4zOC02LjQwNC02LjM5OS0xMS40NzYtMjEuMzg0LTM4LjM1LTEzLjcxMy00OS4zMTYgMi4yODUtMy4yNjQgOC4wODQtNi42MiAyMi42NC00LjgxM3ptLTE3LjY0NC02MS43ODdjMjEuMzM0LjQ3MSAzOC4yMSA4LjQ1MiA1MC4xNTggMjMuNzIgOS4xNjQgMTEuNzExLS45MjcgNjQuOTk4LTMwLjE0IDExMC45NjlhMTcxLjMzIDE3MS4zMyAwIDAgMC0uODg2LTEuMTE3bC0uMzctLjQ2MmM3LjU0OS0xMi40NjcgNi4wNzMtMjQuODAyIDQuNzU5LTM1LjczOC0uNTQtNC40ODgtMS4wNS04LjcyNy0uOTItMTIuNzA5LjEzNC00LjIyLjY5Mi03Ljg0IDEuMjMyLTExLjM0LjY2My00LjMxMyAxLjMzOC04Ljc3NiAxLjE1Mi0xNC4wMzcuMTM5LS41NTIuMTk1LTEuMjA0LjEyMi0xLjk3OC0uNDc1LTUuMDQ1LTYuMjM1LTIwLjE0NC0xNy45NzUtMzMuODEtNi40MjItNy40NzUtMTUuNzg3LTE1Ljg0LTI4LjU3NC0yMS40ODIgNS41LTEuMTQgMTMuMDIxLTIuMjAzIDIxLjQ0Mi0yLjAxNnpNNjYuNjc0IDE3NS43NzhjLTUuOSA3LjA5NC05Ljk3NCA1LjczNC0xMS4zMTQgNS4yODgtOC43My0yLjkxMi0xOC44Ni0yMS4zNjQtMjcuNzkxLTUwLjYyNC03LjcyOC0yNS4zMTgtMTIuMjQ0LTUwLjc3Ny0xMi42MDItNTcuOTE2LTEuMTI4LTIyLjU3OCA0LjM0NS0zOC4zMTMgMTYuMjY4LTQ2Ljc2OSAxOS40MDQtMTMuNzYgNTEuMzA2LTUuNTI0IDY0LjEyNS0xLjM0Ny0uMTg0LjE4Mi0uMzc2LjM1Mi0uNTU4LjUzNy0yMS4wMzYgMjEuMjQ0LTIwLjUzNyA1Ny41NC0yMC40ODUgNTkuNzU5LS4wMDIuODU2LjA3IDIuMDY4LjE2OCAzLjczNS4zNjIgNi4xMDUgMS4wMzYgMTcuNDY3LS43NjQgMzAuMzM0LTEuNjcyIDExLjk1NyAyLjAxNCAyMy42NiAxMC4xMTEgMzIuMTA5YTM2LjI3NSAzNi4yNzUgMCAwIDAgMi42MTcgMi40NjhjLTMuNjA0IDMuODYtMTEuNDM3IDEyLjM5Ni0xOS43NzUgMjIuNDI2em0yMi40NzktMjkuOTkzYy02LjUyNi02LjgxLTkuNDktMTYuMjgyLTguMTMzLTI1Ljk5IDEuOS0xMy41OTIgMS4xOTktMjUuNDMuODIyLTMxLjc5LS4wNTMtLjg5LS4xLTEuNjctLjEyNy0yLjI4NSAzLjA3My0yLjcyNSAxNy4zMTQtMTAuMzU1IDI3LjQ3LTguMDI4IDQuNjM0IDEuMDYxIDcuNDU4IDQuMjE3IDguNjMyIDkuNjQ1IDYuMDc2IDI4LjEwMy44MDQgMzkuODE2LTMuNDMyIDQ5LjIyOS0uODczIDEuOTM5LTEuNjk4IDMuNzcyLTIuNDAyIDUuNjY4bC0uNTQ2IDEuNDY2Yy0xLjM4MiAzLjcwNi0yLjY2OCA3LjE1Mi0zLjQ2NSAxMC40MjQtNi45MzgtLjAyLTEzLjY4Ny0yLjk4NC0xOC44MTktOC4zNHptMS4wNjUgMzcuOWMtMi4wMjYtLjUwNi0zLjg0OC0xLjM4NS00LjkxNy0yLjExNC44OTMtLjQyIDIuNDgyLS45OTIgNS4yMzgtMS41NiAxMy4zMzctMi43NDUgMTUuMzk3LTQuNjgzIDE5Ljg5NS0xMC4zOTQgMS4wMzEtMS4zMSAyLjItMi43OTQgMy44MTktNC42MDJsLjAwMi0uMDAyYzIuNDExLTIuNyAzLjUxNC0yLjI0MiA1LjUxNC0xLjQxMiAxLjYyMS42NyAzLjIgMi43MDIgMy44NCA0LjkzOC4zMDMgMS4wNTYuNjQzIDMuMDYtLjQ3IDQuNjItOS4zOTYgMTMuMTU2LTIzLjA4OCAxMi45ODctMzIuOTIxIDEwLjUyNnptNjkuNzk5IDY0Ljk1MmMtMTYuMzE2IDMuNDk2LTIyLjA5My00LjgyOS0yNS45LTE0LjM0Ni0yLjQ1Ny02LjE0NC0zLjY2NS0zMy44NS0yLjgwOC02NC40NDcuMDExLS40MDctLjA0Ny0uOC0uMTU5LTEuMTdhMTUuNDQ0IDE1LjQ0NCAwIDAgMC0uNDU2LTIuMTYyYy0xLjI3NC00LjQ1Mi00LjM3OS04LjE3Ni04LjEwNC05LjcyLTEuNDgtLjYxMy00LjE5Ni0xLjczOC03LjQ2LS45MDMuNjk2LTIuODY4IDEuOTAzLTYuMTA3IDMuMjEyLTkuNjE0bC41NDktMS40NzVjLjYxOC0xLjY2MyAxLjM5NC0zLjM4NiAyLjIxNC01LjIxIDQuNDMzLTkuODQ4IDEwLjUwNC0yMy4zMzcgMy45MTUtNTMuODEtMi40NjgtMTEuNDE0LTEwLjcxLTE2Ljk4OC0yMy4yMDQtMTUuNjkzLTcuNDkuNzc1LTE0LjM0MyAzLjc5Ny0xNy43NjEgNS41My0uNzM1LjM3Mi0xLjQwNy43MzItMi4wMzUgMS4wODIuOTU0LTExLjUgNC41NTgtMzIuOTkyIDE4LjA0LTQ2LjU5IDguNDg5LTguNTYgMTkuNzk0LTEyLjc4OCAzMy41NjgtMTIuNTYgMjcuMTQuNDQ0IDQ0LjU0NCAxNC4zNzIgNTQuMzY2IDI1Ljk3OSA4LjQ2NCAxMC4wMDEgMTMuMDQ3IDIwLjA3NiAxNC44NzYgMjUuNTEtMTMuNzU1LTEuMzk5LTIzLjExIDEuMzE2LTI3Ljg1MiA4LjA5Ni0xMC4zMTcgMTQuNzQ4IDUuNjQ0IDQzLjM3MiAxMy4zMTUgNTcuMTI5IDEuNDA3IDIuNTIxIDIuNjIxIDQuNyAzLjAwMyA1LjYyNiAyLjQ5OCA2LjA1NCA1LjczMiAxMC4wOTYgOC4wOTMgMTMuMDQ2LjcyNC45MDQgMS40MjYgMS43ODEgMS45NiAyLjU0Ny00LjE2NiAxLjIwMS0xMS42NDkgMy45NzYtMTAuOTY3IDE3Ljg0Ny0uNTUgNi45Ni00LjQ2MSAzOS41NDYtNi40NDggNTEuMDU5LTIuNjIzIDE1LjIxLTguMjIgMjAuODc1LTIzLjk1NyAyNC4yNXptNjguMTA0LTc3LjkzNmMtNC4yNiAxLjk3Ny0xMS4zODkgMy40Ni0xOC4xNjEgMy43NzktNy40OC4zNS0xMS4yODgtLjgzOC0xMi4xODQtMS41NjktLjQyLTguNjQ0IDIuNzk3LTkuNTQ3IDYuMjAyLTEwLjUwMy41MzUtLjE1IDEuMDU3LS4yOTcgMS41NjEtLjQ3My4zMTMuMjU1LjY1Ni41MDggMS4wMzIuNzU2IDYuMDEyIDMuOTY4IDE2LjczNSA0LjM5NiAzMS44NzQgMS4yNzFsLjE2Ni0uMDMzYy0yLjA0MiAxLjkwOS01LjUzNiA0LjQ3MS0xMC40OSA2Ljc3MnoiLz48L3N2Zz4=;" vertex="1" parent="1">
          <mxGeometry x="300" y="180" width="60" height="60" as="geometry" />
        </mxCell>
        <mxCell id="tx6jsVxLEYG0F0Y0dAkg-6" value="" style="shape=image;verticalLabelPosition=bottom;labelBackgroundColor=default;verticalAlign=top;aspect=fixed;imageAspect=0;image=data:image/svg+xml,PHN2ZyB4bWxucz0iaHR0cDovL3d3dy53My5vcmcvMjAwMC9zdmciIHZpZXdCb3g9IjAgMCAzMiAzMiIgaGVpZ2h0PSI4MDBweCIgd2lkdGg9IjgwMHB4Ij48dGl0bGU+ZmlsZV90eXBlX2dvPC90aXRsZT48cGF0aCBzdHlsZT0iZmlsbDojZjZkMmEyO2ZpbGwtcnVsZTpldmVub2RkIiBkPSJNNS45ODcsMTcuMTVjLjA0LjgyNi44NjUuNDQ0LDEuMjM5LjE4Ni4zNTUtLjI0NS40NTktLjA0MS40OS0uNTI1YTcuOTM3LDcuOTM3LDAsMCwwLC4wMzktLjk1NSwyLjM0MiwyLjM0MiwwLDAsMC0xLjU2LjRjLS4yMjcuMTY1LS42NTEuNjktLjIwOC45Ii8+PHBhdGggZD0iTTYuNDE2LDE3LjczMmEuNTI3LjUyNywwLDAsMS0uMjM2LS4wNTEuNTQxLjU0MSwwLDAsMS0uMjctLjQ4Mi4zNTguMzU4LDAsMCwxLS4yLS4yODMsMS4wMDYsMS4wMDYsMCwwLDEsLjQzMi0uNzI3LDIuNCwyLjQsMCwwLDEsMS42MTMtLjQxM2wuMDY4LjAwNiwwLC4wNjhhNS42NjcsNS42NjcsMCwwLDEtLjAyMy43NDdjLS4wMDYuMDczLS4wMTEuMTQ1LS4wMTYuMjE4LS4wMjIuMzQzLS4wODYuMzk1LS4yNjMuNDU2YS45NzUuOTc1LDAsMCwwLS4yNjEuMTI5QTEuNzg4LDEuNzg4LDAsMCwxLDYuNDE2LDE3LjczMlptMS4xMS0xLjgwOGEyLjIsMi4yLDAsMCwwLTEuMjg2LjM5NGMtLjE2Mi4xMTgtLjM4Ny4zOTQtLjM2OC41ODRhLjIxOS4yMTksMCwwLDAsLjE0Ny4xNzdsLjA0My4wMiwwLC4wNDdjLjAxLjIwNi4wNzIuMzM4LjE4NS4zOTQuMjE4LjEwOC42MjQtLjA1OC45MzEtLjI2OWExLjEyNywxLjEyNywwLDAsMSwuMy0uMTQ4Yy4xMTYtLjA0LjE0LS4wNDkuMTU3LS4zMTgsMC0uMDczLjAxLS4xNDYuMDE2LS4yMmE2LjE0OCw2LjE0OCwwLDAsMCwuMDI2LS42NThRNy42LDE1LjkyNCw3LjUyNywxNS45MjRaIi8+PHBhdGggc3R5bGU9ImZpbGw6I2M2YjE5ODtmaWxsLXJ1bGU6ZXZlbm9kZCIgZD0iTTUuOTg3LDE3LjE1YS42NS42NSwwLDAsMCwuMzI5LS4xODUiLz48cGF0aCBkPSJNNS45ODcsMTcuMjI5YS4wNzkuMDc5LDAsMCwxLS4wMjctLjE1MmwuMDUzLS4wMTlhLjQ3My40NzMsMCwwLDAsLjI0MS0uMTM5LjA3OS4wNzksMCwxLDEsLjEyNi4wOTQuNjE1LjYxNSwwLDAsMS0uMzE0LjE5M2wtLjA1MS4wMThBLjA3OC4wNzgsMCwwLDEsNS45ODcsMTcuMjI5WiIvPjxwYXRoIHN0eWxlPSJmaWxsOiM2YWQ3ZTU7ZmlsbC1ydWxlOmV2ZW5vZGQiIGQ9Ik03Ljg5NCw3LjMwOUM0LjczMSw2LjQyLDcuMDgzLDIuNCw5LjYyMiw0LjA1MloiLz48cGF0aCBkPSJNNy45MzQsNy40bC0uMDYxLS4wMTdhMS45MjcsMS45MjcsMCwwLDEtMS41NjItMS41LDIuMDk0LDIuMDk0LDAsMCwxLC45NzctMS45NzksMi4xMTYsMi4xMTYsMCwwLDEsMi4zNzguMDgxbC4wNi4wMzlabS40NDktMy42NjZhMS44NTIsMS44NTIsMCwwLDAtMS4wMS4zLDEuOTMzLDEuOTMzLDAsMCwwLS45MDcsMS44MjNBMS43NTUsMS43NTUsMCwwLDAsNy44NTQsNy4yMTZMOS41MTksNC4wNzlBMi4xNywyLjE3LDAsMCwwLDguMzgzLDMuNzM2WiIvPjxwYXRoIHN0eWxlPSJmaWxsOiM2YWQ3ZTU7ZmlsbC1ydWxlOmV2ZW5vZGQiIGQ9Ik0yMS45NDQsMy43NWMyLjUtMS43NTgsNC43NjUsMi4yMDksMS44NTYsMy4yMDdaIi8+PHBhdGggZD0iTTIzLjc2NSw3LjA1MiwyMS44NCwzLjcyN2wuMDU5LS4wNDFhMi4wNjYsMi4wNjYsMCwwLDEsMi4yOTUtLjE5MywyLjEyMiwyLjEyMiwwLDAsMSwxLjA0NCwxLjk2NSwxLjg4MSwxLjg4MSwwLDAsMS0xLjQxMywxLjU3M1pNMjIuMDQ5LDMuNzczLDIzLjgzNiw2Ljg2YTEuNzEyLDEuNzEyLDAsMCwwLDEuMjQ2LTEuNDE4LDEuOTYxLDEuOTYxLDAsMCwwLS45NjctMS44MTRBMS44NTcsMS44NTcsMCwwLDAsMjIuMDQ5LDMuNzczWiIvPjxwYXRoIHN0eWxlPSJmaWxsOiNmNmQyYTI7ZmlsbC1ydWxlOmV2ZW5vZGQiIGQ9Ik0yMi40ODMsMjcuMzE3Yy42MzYuMzkzLDEuOCwxLjU4My44NDQsMi4xNi0uOTE2LjgzOS0xLjQyOS0uOTIxLTIuMjM0LTEuMTY1QTIuMjI1LDIuMjI1LDAsMCwxLDIyLjQ4MywyNy4zMTdaIi8+PHBhdGggZD0iTTIyLjg0NCwyOS43ODFoLS4wMzhjLS4zNjEtLjAyMi0uNjYxLS4zNzQtLjk1MS0uNzE1YTIuMDQxLDIuMDQxLDAsMCwwLS43ODUtLjY3N2wtLjEwNi0uMDMyLjA2Ni0uMDlhMi4zMjMsMi4zMjMsMCwwLDEsMS40NDEtMS4wMjZsLjAyOSwwLC4wMjUuMDE1Yy40MDcuMjUyLDEuMjQ3Ljk4OCwxLjI0MywxLjY1NGEuNzMuNzMsMCwwLDEtLjM5My42MzZBLjc5MS43OTEsMCwwLDEsMjIuODQ0LDI5Ljc4MVptLTEuNjI1LTEuNWEyLjUwNSwyLjUwNSwwLDAsMSwuNzU2LjY4N2MuMjgxLjMzLjU0Ny42NDIuODQxLjY2YS42MjYuNjI2LDAsMCwwLC40NTctLjJsLjAxMi0uMDA5YS41NzguNTc4LDAsMCwwLC4zMjQtLjUwNmMwLS41MzItLjY3Mi0xLjItMS4xNDQtMS41QTIuMDU1LDIuMDU1LDAsMCwwLDIxLjIxOSwyOC4yNzZaIi8+PHBhdGggZD0iTTIzLjMyNywyOS41NTZhLjA3OS4wNzksMCwwLDEtLjA3LS4wNDMsMi45MTgsMi45MTgsMCwwLDEtLjEyMy0uMywxLjMwOSwxLjMwOSwwLDAsMC0uMjg2LS41MTguMDc5LjA3OSwwLDAsMSwuMTA5LS4xMTMsMS40NDcsMS40NDcsMCwwLDEsLjMyNS41NzcsMi44MDYsMi44MDYsMCwwLDAsLjExNi4yOC4wNzkuMDc5LDAsMCwxLS4wMzUuMTA2QS4wNzguMDc4LDAsMCwxLDIzLjMyNywyOS41NTZaIi8+PHBhdGggc3R5bGU9ImZpbGw6I2Y2ZDJhMjtmaWxsLXJ1bGU6ZXZlbm9kZCIgZD0iTTExLjEyNCwyOC42NjJjLS43NDYuMTE1LTEuMTY2Ljc4OS0xLjc4OCwxLjEzMS0uNTg2LjM1LS44MTEtLjExMi0uODYzLS4yMDYtLjA5Mi0uMDQyLS4wODQuMDM5LS4yMjYtLjFDNy43LDI4LjYyNSw4LjgxMiwyOCw5LjM5LDI3LjU3MiwxMC4xOTUsMjcuNDA5LDEwLjcsMjguMTA3LDExLjEyNCwyOC42NjJaIi8+PHBhdGggZD0iTTguOTM5LDMwYS41MzUuNTM1LDAsMCwxLS4xNDEtLjAxOC42NDcuNjQ3LDAsMCwxLS4zOC0uMzNIOC40Yy0uMDY2LDAtLjExNS0uMDE0LS4yMTMtLjExM2wtLjAxMS0uMDEzYy0uNTIzLS44MjYuMzY3LTEuNDUzLjk1Ny0xLjg2OC4wNzQtLjA1Mi4xNDQtLjEuMjA3LS4xNDhsLjAxNC0uMDEuMDE3LDBjLjgyOS0uMTY4LDEuMzUzLjUxOCwxLjc3MywxLjA2OWwuMTE5LjE1NS0uMTMxLjAyYTIuMjYzLDIuMjYzLDAsMCwwLTEuMTA1LjYzNCw0LjAyMyw0LjAyMywwLDAsMS0uNjU3LjQ4OEEuODU5Ljg1OSwwLDAsMSw4LjkzOSwzMFptLS41MjctLjUwNmEuMjEzLjIxMywwLDAsMSwuMDkyLjAyMWwuMDIzLjAxMS4wMi4wMzVhLjUwOS41MDksMCwwLDAsLjI5Mi4yNjkuNi42LDAsMCwwLC40NTYtLjEsMy45MDksMy45MDksMCwwLDAsLjYzMy0uNDcxLDIuNjI5LDIuNjI5LDAsMCwxLDEuMDU2LS42NDRjLS40LS41MjYtLjg2Mi0xLjA5NC0xLjU2Mi0uOTYzLS4wNjEuMDQ0LS4xMjcuMDkxLS4yLjEzOS0uNi40MjQtMS4zNTIuOTUyLS45MTksMS42NDguMDYyLjA2Mi4wNzcuMDYxLjA5LjA2MVoiLz48cGF0aCBkPSJNOC40NzIsMjkuNjY1SDguNDY1YS4wNzkuMDc5LDAsMCwxLS4wNzItLjA4NSwxLjIsMS4yLDAsMCwxLC4yNTMtLjU3MiwxLjg1MiwxLjg1MiwwLDAsMCwuMTY1LS4yNzYuMDc5LjA3OSwwLDAsMSwuMTQ0LjA2NCwxLjk5MiwxLjk5MiwwLDAsMS0uMTc4LjMsMS4wNjUsMS4wNjUsMCwwLDAtLjIyNi41QS4wNzkuMDc5LDAsMCwxLDguNDcyLDI5LjY2NVoiLz48cGF0aCBzdHlsZT0iZmlsbC1ydWxlOmV2ZW5vZGQiIGQ9Ik04LjAyNiw2LjJjLS40MTctLjIyMS0uNzIzLS41Mi0uNDY4LTEsLjIzNi0uNDQ3LjY3NS0uNCwxLjA5Mi0uMTc4WiIvPjxwYXRoIHN0eWxlPSJmaWxsLXJ1bGU6ZXZlbm9kZCIgZD0iTTIzLjE0MSw1Ljc3OGMuNDE3LS4yMjEuNzIzLS41Mi40NjgtMS0uMjM2LS40NDctLjY3NS0uNC0xLjA5Mi0uMTc4WiIvPjxwYXRoIHN0eWxlPSJmaWxsOiNmNmQyYTI7ZmlsbC1ydWxlOmV2ZW5vZGQiIGQ9Ik0yNi4wMTMsMTcuMDQ2Yy0uMDQuODI2LS44NjUuNDQ0LTEuMjM5LjE4Ni0uMzU1LS4yNDUtLjQ1OS0uMDQxLS40OS0uNTI1YTcuOTM2LDcuOTM2LDAsMCwxLS4wMzktLjk1NSwyLjM0MiwyLjM0MiwwLDAsMSwxLjU2LjRjLjIyNy4xNjUuNjUxLjY5LjIwOC45Ii8+PHBhdGggZD0iTTI1LjU4NCwxNy42MjdhMS43ODgsMS43ODgsMCwwLDEtLjg1NC0uMzMxLjk3NS45NzUsMCwwLDAtLjI2MS0uMTI5Yy0uMTc3LS4wNjItLjI0MS0uMTE0LS4yNjMtLjQ1NiwwLS4wNzMtLjAxLS4xNDUtLjAxNi0uMjE4YTUuNjc2LDUuNjc2LDAsMCwxLS4wMjMtLjc0N2wwLS4wNjguMDY4LS4wMDZhMi40LDIuNCwwLDAsMSwxLjYxMy40MTMsMS4wMDYsMS4wMDYsMCwwLDEsLjQzMi43MjcuMzU4LjM1OCwwLDAsMS0uMi4yODMuNTQxLjU0MSwwLDAsMS0uMjcuNDgyQS41MjcuNTI3LDAsMCwxLDI1LjU4NCwxNy42MjdabS0xLjI2My0xLjhhNi4xNDgsNi4xNDgsMCwwLDAsLjAyNi42NThjLjAwNi4wNzMuMDExLjE0Ni4wMTYuMjIuMDE3LjI2OS4wNDEuMjc3LjE1Ny4zMThhMS4xMjcsMS4xMjcsMCwwLDEsLjMuMTQ4Yy4zMDYuMjEyLjcxMy4zNzcuOTMxLjI2OS4xMTMtLjA1Ni4xNzUtLjE4OC4xODUtLjM5NGwwLS4wNDcuMDQzLS4wMmEuMjE5LjIxOSwwLDAsMCwuMTQ3LS4xNzdjLjAxOC0uMTktLjIwNi0uNDY2LS4zNjgtLjU4NEEyLjIzMiwyLjIzMiwwLDAsMCwyNC4zMjEsMTUuODI0WiIvPjxwYXRoIHN0eWxlPSJmaWxsOiNjNmIxOTg7ZmlsbC1ydWxlOmV2ZW5vZGQiIGQ9Ik0yNi4wMTMsMTcuMDQ2YS42NS42NSwwLDAsMS0uMzI5LS4xODUiLz48cGF0aCBkPSJNMjYuMDEzLDE3LjEyNGEuMDc4LjA3OCwwLDAsMS0uMDI3LDBsLS4wNTEtLjAxOGEuNjE0LjYxNCwwLDAsMS0uMzE0LS4xOTMuMDc5LjA3OSwwLDEsMSwuMTI2LS4wOTQuNDczLjQ3MywwLDAsMCwuMjQxLjEzOWwuMDUzLjAxOWEuMDc5LjA3OSwwLDAsMS0uMDI3LjE1MloiLz48cGF0aCBzdHlsZT0iZmlsbDojNmFkN2U1O2ZpbGwtcnVsZTpldmVub2RkIiBkPSJNMTUuNjgzLDIuMDc5YzMuMTY2LDAsNi4xMzQuNDUzLDcuNjgxLDMuNDk1LDEuMzg5LDMuNDA5Ljg5NSw3LjA4NiwxLjEwNywxMC42ODkuMTgyLDMuMDk0LjU4NSw2LjY2OC0uODUsOS41MzYtMS41MSwzLjAxNi01LjI4MywzLjc3NS04LjM5MiwzLjY2NC0yLjQ0Mi0uMDg3LTUuMzkxLS44ODQtNi43NjktMy4xMTUtMS42MTctMi42MTctLjg1MS02LjUwOS0uNzM0LTkuNDIxLjEzOS0zLjQ0OS0uOTM0LTYuOTEuMi0xMC4yODUsMS4xNzYtMy41LDQuMzQ2LTQuMjkzLDcuNzU4LTQuNTYzIi8+PHBhdGggZD0iTTE1Ljc3LDI5LjU1Yy0uMiwwLS4zOCwwLS41NDMtLjAxLTEuNS0uMDU0LTUuMTc2LS40NjktNi44MzMtMy4xNTItMS4zMDctMi4xMTYtMS4wNzQtNS4wNDEtLjg2OS03LjYyMi4wNTItLjY0OS4xLTEuMjYzLjEyNC0xLjg0M2EyOS42NzMsMjkuNjczLDAsMCwwLS4xNTctMy42NjYsMTYuMjE2LDE2LjIxNiwwLDAsMSwuMzYtNi42NDEsNS44MTIsNS44MTIsMCwwLDEsMy4wOC0zLjUzOUExMi45NDgsMTIuOTQ4LDAsMCwxLDE1LjY3NywyaC4wMDZjMy4wOTEsMCw2LjE3LjQyOSw3Ljc1MSwzLjUzOGwwLC4wMDZhMjAuNTE4LDIwLjUxOCwwLDAsMSwxLjA0NCw3Ljc2MmMuMDA1Ljk2OS4wMTEsMS45NzIuMDY4LDIuOTUyLjAxNy4zLjAzNy42LjA1Ny45LjE4NCwyLjg0MS4zOTIsNi4wNjItLjkxNSw4LjY3M0MyMi4wNTksMjkuMDkyLDE3Ljk0NywyOS41NSwxNS43NywyOS41NVpNMTUuNjg2LDIuMTU3Yy0zLjI5NC4yNjEtNi41Ljk4OC03LjY4Nyw0LjUwOWExNi4xLDE2LjEsMCwwLDAtLjM1Myw2LjU3OEEyOS43ODgsMjkuNzg4LDAsMCwxLDcuOCwxNi45M2MtLjAyNC41ODQtLjA3MiwxLjItLjEyNCwxLjg1LS4yLDIuNTU3LS40MzQsNS40NTUuODQ2LDcuNTI3LDEuNjE4LDIuNjE5LDUuMjI4LDMuMDI1LDYuNzA1LDMuMDc3LDEuOTIyLjA2OSw2LjU3OS0uMTQ3LDguMzE4LTMuNjIxLDEuMjg4LTIuNTczLDEuMDgxLTUuNzcxLjktOC41OTItLjAyLS4zLS4wMzktLjYwNi0uMDU3LS45LS4wNTgtLjk4NC0uMDYzLTEuOTg5LS4wNjgtMi45NmEyMC40MDgsMjAuNDA4LDAsMCwwLTEuMDMxLTcuN0MyMS43NSwyLjU3NiwxOC43MjUsMi4xNTgsMTUuNjg2LDIuMTU3WiIvPjxwYXRoIHN0eWxlPSJmaWxsOiNmZmZmZmY7ZmlsbC1ydWxlOmV2ZW5vZGQiIGQ9Ik0xNi4yNDIsNi4zMjljLjU2OCwzLjMsNS45NywyLjQzMSw1LjE5NC0uOS0uNy0yLjk4OC01LjM4My0yLjE2MS01LjE5NC45Ii8+PHBhdGggZD0iTTE4LjgwOCw4LjQ4NWEzLjAyNSwzLjAyNSwwLDAsMS0uOTg4LS4xNjIsMi40NDQsMi40NDQsMCwwLDEtMS42NTMtMS45ODJWNi4zMzNhMi42NzIsMi42NzIsMCwwLDEsMi40MTYtMi44MTRBMi40ODIsMi40ODIsMCwwLDEsMjEuNTEsNS40MWEyLjMxMiwyLjMxMiwwLDAsMS0uNjczLDIuMzQzQTMuMDcyLDMuMDcyLDAsMCwxLDE4LjgwOCw4LjQ4NVpNMTYuMzE4LDYuMzJBMi4zLDIuMywwLDAsMCwxNy44Nyw4LjE4YTIuOTg3LDIuOTg3LDAsMCwwLDIuODY1LS41NCwyLjE2NSwyLjE2NSwwLDAsMCwuNjI3LTIuMkEyLjMzNSwyLjMzNSwwLDAsMCwxOC42LDMuNjcsMi41MjQsMi41MjQsMCwwLDAsMTYuMzE4LDYuMzJaIi8+PHBhdGggc3R5bGU9ImZpbGw6I2ZmZmZmZjtmaWxsLXJ1bGU6ZXZlbm9kZCIgZD0iTTkuNzg4LDYuODYzQzEwLjUyNCw5Ljc0LDE1LjEzLDksMTQuOTU2LDYuMTE4Yy0uMjA4LTMuNDU2LTUuODczLTIuNzg5LTUuMTY5Ljc0NSIvPjxwYXRoIGQ9Ik0xMi4yNDUsOC43NjFBMi44MjYsMi44MjYsMCwwLDEsMTAuOSw4LjQzNSwyLjM4NCwyLjM4NCwwLDAsMSw5LjcxNiw2Ljg4MnYwYTIuNDExLDIuNDExLDAsMCwxLC44MjYtMi40NzIsMy4xMDcsMy4xMDcsMCwwLDEsMy4wODctLjM5NCwyLjMzNSwyLjMzNSwwLDAsMSwxLjQsMi4xLDIuNTI5LDIuNTI5LDAsMCwxLTIuMjksMi42MDlBMy4yLDMuMiwwLDAsMSwxMi4yNDUsOC43NjFaTTkuODYsNi44NDdhMi40LDIuNCwwLDAsMCwyLjg1OCwxLjcyOSwyLjM4NSwyLjM4NSwwLDAsMCwyLjE2NS0yLjQ1NCwyLjE5MywyLjE5MywwLDAsMC0xLjMxNC0xLjk3NiwyLjk1MywyLjk1MywwLDAsMC0yLjkzNS4zNzRBMi4yNjksMi4yNjksMCwwLDAsOS44Niw2Ljg0N1oiLz48cGF0aCBzdHlsZT0iZmlsbDojZmZmZmZmO2ZpbGwtcnVsZTpldmVub2RkIiBkPSJNMTYuODk0LDEwLjI5NGE3LjQ1LDcuNDUsMCwwLDEsLjAxNiwxLjM2OWMtLjExLjIwNy0uMzI1LjIyOS0uNTEuMzEzYS43NTEuNzUxLDAsMCwxLS41NzUtLjQ0OSw5LjcyLDkuNzIsMCwwLDEsLjA0MS0xLjU0OVoiLz48cGF0aCBkPSJNMTYuNDExLDEyLjA1N2wtLjAyMywwYS44MjguODI4LDAsMCwxLS42MzUtLjVsMC0uMDF2LS4wMTFhNS4yLDUuMiwwLDAsMSwuMDA5LTEuMDYzYy4wMTMtLjE2My4wMjYtLjMzMS4wMzEtLjVsMC0uMSwxLjE4MS4zNjJ2LjA1OGMwLC4xNDIuMDEyLjI4OS4wMjQuNDQ0YTMuNzQ2LDMuNzQ2LDAsMCwxLS4wMDguOTM5bDAsLjAxMi0uMDA2LjAxMWEuNjU4LjY1OCwwLDAsMS0uNDE0LjNjLS4wNDcuMDE3LS4wOTEuMDMyLS4xMzQuMDUyWm0tLjUwOS0uNTUxYS42NzEuNjcxLDAsMCwwLC40ODguMzg4Yy4wNDEtLjAxNy4wODMtLjAzMi4xMjMtLjA0N2EuNTI1LjUyNSwwLDAsMCwuMzIyLS4yMTEsMy42ODMsMy42ODMsMCwwLDAsMC0uODg3Yy0uMDEtLjEzNy0uMDItLjI2OC0uMDIzLS40bC0uODc1LS4yNjhjLS4wMDcuMTM2LS4wMTcuMjcxLS4wMjcuNEE1LjA1LDUuMDUsMCwwLDAsMTUuOSwxMS41MDZaIi8+PGVsbGlwc2Ugcnk9IjAuODQyIiByeD0iMC43NzgiIGN5PSI2LjM5NCIgY3g9IjExLjA1OCIvPjxlbGxpcHNlIHN0eWxlPSJmaWxsOiNmZmYiIHJ5PSIwLjIxNCIgcng9IjAuMTgzIiBjeT0iNi41ODQiIGN4PSIxMS40MTIiLz48ZWxsaXBzZSByeT0iMC44NDIiIHJ4PSIwLjc2NSIgY3k9IjYuMTg0IiBjeD0iMTcuNTc0Ii8+PGVsbGlwc2Ugc3R5bGU9ImZpbGw6I2ZmZiIgcnk9IjAuMjE0IiByeD0iMC4xOCIgY3k9IjYuMzc0IiBjeD0iMTcuOTIyIi8+PHBhdGggc3R5bGU9ImZpbGw6I2ZmZmZmZjtmaWxsLXJ1bGU6ZXZlbm9kZCIgZD0iTTE0LjY3MSwxMC4yNDdjLS4zMzkuODIyLjE4OSwyLjQ2NywxLjExLDEuMjU0YTkuNzIsOS43MiwwLDAsMSwuMDQxLTEuNTQ5WiIvPjxwYXRoIGQ9Ik0xNS4xNjYsMTIuMDEzYS40NTEuNDUxLDAsMCwxLS4yMjYtLjA2MiwxLjYsMS42LDAsMCwxLS4zNDEtMS43MzNsLjAxNS0uMDM2TDE1LjksOS44NWwwLC4xYy0uMDA1LjE3LS4wMTkuMzQtLjAzMi41YTUsNSwwLDAsMC0uMDEsMS4wMzFsMCwuMDMyLS4wMTkuMDI2QzE1LjU3NCwxMS45LDE1LjM0NSwxMi4wMTMsMTUuMTY2LDEyLjAxM1ptLS40MzYtMS43YTEuNDU4LDEuNDU4LDAsMCwwLC4yODgsMS41Yy4yMzguMTM2LjUtLjEuNjgxLS4zMzVhNS4zNDksNS4zNDksMCwwLDEsLjAxMy0xLjAzMWMuMDEtLjEyOS4wMi0uMjYxLjAyNy0uMzkyWiIvPjxwYXRoIHN0eWxlPSJmaWxsOiNmNmQyYTI7ZmlsbC1ydWxlOmV2ZW5vZGQiIGQ9Ik0xNC43ODcsOC42NjNhMSwxLDAsMCwwLS44MjEsMS40Yy40MzUuNzg4LDEuNDA3LS4wNywyLjAxMy4wMTEuNy4wMTQsMS4yNjguNzM3LDEuODI3LjEzMS42MjItLjY3NC0uMjY4LTEuMzMxLS45NjQtMS42MjRaIi8+PHBhdGggc3R5bGU9ImZpbGw6IzIzMWYyMCIgZD0iTTE3LjMwOCwxMC41MjZhMS43MjcsMS43MjcsMCwwLDEtLjY0MS0uMTc5LDEuOTI4LDEuOTI4LDAsMCwwLS42ODktLjE5NGgtLjAwOWExLjc0OSwxLjc0OSwwLDAsMC0uNzEyLjE1MmMtLjQ5MS4xNy0xLjA0OC4zNjItMS4zNi0uMmEuOTQ2Ljk0NiwwLDAsMSwuMDE0LS45MTcsMS4xMTgsMS4xMTgsMCwwLDEsLjg2OS0uNmgwTDE2Ljg1Nyw4LjVsLjAxNi4wMDdjLjUxNy4yMTgsMS4xMDYuNjE3LDEuMjA3LDEuMDgzYS44MzYuODM2LDAsMCwxLS43NzIuOTM0Wk0xNS45ODUsMTBhMi4wNTYsMi4wNTYsMCwwLDEsLjc0My4yMDZjLjM5My4xNjUuNy4yOTUsMS4wMjEtLjA1YS41OC41OCwwLDAsMCwuMTc4LS41MjhjLS4wODctLjQtLjY0Mi0uNzY5LTEuMS0uOTY0bC0yLjAzNi4wODFhLjk3My45NzMsMCwwLDAtLjc0Mi41MTcuNzkyLjc5MiwwLDAsMC0uMDE1Ljc2N2MuMjQ4LjQ0OS43LjI5NCwxLjE3LjEzQTEuODU2LDEuODU2LDAsMCwxLDE1Ljk4NSwxMFoiLz48cGF0aCBzdHlsZT0iZmlsbC1ydWxlOmV2ZW5vZGQiIGQ9Ik0xNC43MDgsOC42M0MxNC42NjEsNy41MzUsMTYuNzUsNy40LDE3LDguMzE1cy0yLjE4NiwxLjEyOC0yLjI4OS4zMTZaIi8+PC9zdmc+;" vertex="1" parent="1">
          <mxGeometry x="390" y="340" width="75" height="75" as="geometry" />
        </mxCell>
        <mxCell id="tx6jsVxLEYG0F0Y0dAkg-8" value="" style="shape=image;verticalLabelPosition=bottom;labelBackgroundColor=default;verticalAlign=top;aspect=fixed;imageAspect=0;image=data:image/svg+xml,PHN2ZyB4bWxucz0iaHR0cDovL3d3dy53My5vcmcvMjAwMC9zdmciIGZpbGw9Im5vbmUiIHZpZXdCb3g9IjAgMCAxNSAxNSIgaGVpZ2h0PSI4MDBweCIgd2lkdGg9IjgwMHB4Ij4mI3hhOzxwYXRoIGZpbGw9IiMwMDAwMDAiIGQ9Ik00LjUgNC41TDQuOTA1MzQgNC4yMDcyNUM0Ljc3ODM2IDQuMDMxNDQgNC41NTI1MiAzLjk1NzUzIDQuMzQ2MTcgNC4wMjQyNUM0LjEzOTgxIDQuMDkwOTggNCA0LjI4MzEzIDQgNC41SDQuNVpNNy41IDE0QzMuOTEwMTUgMTQgMSAxMS4wODk5IDEgNy41SDBDMCAxMS42NDIxIDMuMzU3ODYgMTUgNy41IDE1VjE0Wk0xNCA3LjVDMTQgMTEuMDg5OSAxMS4wODk5IDE0IDcuNSAxNFYxNUMxMS42NDIxIDE1IDE1IDExLjY0MjEgMTUgNy41SDE0Wk03LjUgMUMxMS4wODk5IDEgMTQgMy45MTAxNSAxNCA3LjVIMTVDMTUgMy4zNTc4NiAxMS42NDIxIDAgNy41IDBWMVpNNy41IDBDMy4zNTc4NiAwIDAgMy4zNTc4NiAwIDcuNUgxQzEgMy45MTAxNSAzLjkxMDE1IDEgNy41IDFWMFpNNSAxMlY0LjVINFYxMkg1Wk00LjA5NDY2IDQuNzkyNzVMMTAuNTk0NyAxMy43OTI3TDExLjQwNTMgMTMuMjA3M0w0LjkwNTM0IDQuMjA3MjVMNC4wOTQ2NiA0Ljc5Mjc1Wk0xMCA0VjEwSDExVjRIMTBaIi8+JiN4YTs8L3N2Zz4=;" vertex="1" parent="1">
          <mxGeometry x="230" y="240" width="60" height="60" as="geometry" />
        </mxCell>
        <mxCell id="tx6jsVxLEYG0F0Y0dAkg-9" value="" style="shape=image;verticalLabelPosition=bottom;labelBackgroundColor=default;verticalAlign=top;aspect=fixed;imageAspect=0;image=data:image/svg+xml,PHN2ZyB4bWxucz0iaHR0cDovL3d3dy53My5vcmcvMjAwMC9zdmciIGRhdGEtbmFtZT0iTGF5ZXIgMSIgaWQ9IkxheWVyXzEiIHZpZXdCb3g9IjAgMCA2NCA2NCIgaGVpZ2h0PSI4MDBweCIgd2lkdGg9IjgwMHB4Ij48ZGVmcz48c3R5bGU+LmNscy0xe2ZpbGw6IzVjMmQ5MTt9LmNscy0yLC5jbHMtM3tmaWxsOiNmZmZmZmY7fS5jbHMtMntvcGFjaXR5OjAuMTt9PC9zdHlsZT48L2RlZnM+PHRpdGxlPmxvZ29fTkVUPC90aXRsZT48Y2lyY2xlIHI9IjMyIiBjeT0iMzIiIGN4PSIzMiIgY2xhc3M9ImNscy0xIi8+PHBhdGggZD0iTTkuODIsOUEzMiwzMiwwLDEsMCw1NSw1NC4xOFoiIGNsYXNzPSJjbHMtMiIvPjxwYXRoIGQ9Ik03LjQsNDEuMjVhMS4zNSwxLjM1LDAsMCwxLTEtLjQyLDEuMzgsMS4zOCwwLDAsMS0uNDEtMSwxLjQsMS40LDAsMCwxLC40MS0xLDEuMzQsMS4zNCwwLDAsMSwxLS40MywxLjM3LDEuMzcsMCwwLDEsMSwuNDMsMS4zOSwxLjM5LDAsMCwxLC40MiwxLDEuMzcsMS4zNywwLDAsMS0uNDIsMUExLjM4LDEuMzgsMCwwLDEsNy40LDQxLjI1WiIgY2xhc3M9ImNscy0zIi8+PHBhdGggZD0iTTI3LjI3LDQxSDI0LjY1TDE1LjI4LDI2LjQ2YTYuMDYsNi4wNiwwLDAsMS0uNTgtMS4xNGgtLjA4YTE4LjcxLDE4LjcxLDAsMCwxLC4xLDIuNVY0MUgxMi41OVYyMi43N2gyLjc3bDkuMTIsMTQuMjhxLjU3Ljg5Ljc0LDEuMjJoLjA1YTE5LjI5LDE5LjI5LDAsMCwxLS4xMy0yLjY4VjIyLjc3aDIuMTNaIiBjbGFzcz0iY2xzLTMiLz48cGF0aCBkPSJNNDEuNjksNDFIMzJWMjIuNzdoOS4yNFYyNC43SDM0LjE4djYuMDZoNi41OHYxLjkySDM0LjE4VjM5aDcuNTJaIiBjbGFzcz0iY2xzLTMiLz48cGF0aCBkPSJNNTYsMjQuN0g1MC43VjQxSDQ4LjU3VjI0LjdINDMuMzNWMjIuNzdINTZaIiBjbGFzcz0iY2xzLTMiLz48L3N2Zz4=;" vertex="1" parent="1">
          <mxGeometry x="270" y="310" width="60" height="60" as="geometry" />
        </mxCell>
        <mxCell id="tx6jsVxLEYG0F0Y0dAkg-11" value="" style="shape=image;verticalLabelPosition=bottom;labelBackgroundColor=default;verticalAlign=top;aspect=fixed;imageAspect=0;image=data:image/svg+xml,PHN2ZyB4bWxucz0iaHR0cDovL3d3dy53My5vcmcvMjAwMC9zdmciIHZpZXdCb3g9IjAgMCAyNCAyNCI+PHBhdGggZD0ibTEyIDBjLTYuNjI1IDAtMTIgNS4zNzUtMTIgMTIgMCA2LjYyNyA1LjM3NSAxMiAxMiAxMiA2LjYyNiAwIDEyLTUuMzczIDEyLTEyIDAtNi42MjUtNS4zNzMtMTItMTItMTJ6bS0uNjI0IDIxLjYydi03LjUyOGgtNC4xODZsNi4wMTMtMTEuNzEydjcuNTI4aDQuMDI5eiIvPjwvc3ZnPg==;" vertex="1" parent="1">
          <mxGeometry x="110" y="310" width="60" height="60" as="geometry" />
        </mxCell>
        <mxCell id="tx6jsVxLEYG0F0Y0dAkg-15" value="خدمة&amp;nbsp;" style="text;html=1;align=center;verticalAlign=middle;resizable=0;points=[];autosize=1;strokeColor=none;fillColor=none;" vertex="1" parent="1">
          <mxGeometry x="275" y="408" width="50" height="30" as="geometry" />
        </mxCell>
        <mxCell id="tx6jsVxLEYG0F0Y0dAkg-16" value="" style="shape=image;verticalLabelPosition=bottom;labelBackgroundColor=default;verticalAlign=top;aspect=fixed;imageAspect=0;image=data:image/png,iVBORw0KGgoAAAANSUhEUgAAALUAAAEACAYAAAD1IzfbAAAACXBIWXMAAAsTAAALEwEAmpwYAAAAAXNSR0IArs4c6QAAAARnQU1BAACxjwv8YQUAABzUSURBVHgB7Z0JtGRVdYZ/bTUMDiiKMnYLhKFVJCBOKDxdIM4oEiUaYiNxJRpFkhVwjLTLKVFwiONSGWIaUIFAUNAElUYDRkQFFRAE+8nUzDLP0N7v3aruetU1nLPPuVX3Vu1vrU033f3O+Netc8/ZZ2/JcRzHcRzHcRzHcRzHcRzHcRzHcRzHcRzHcRzHcRzHcRzHcRzHcerIw1RPaNdWhT279euC1p/fV9hvC/tJYSvlVM3GhT2vsO0Ke1Trzx4s7PLCzm39ukrOQDYo7JDCLlQ5WP3sIZXC/tvC1pGTE8aTcWV8GedB88A8MV8byFkLnsQHFXaTBg9iL5st7A2q77dOU2D8GMdZxc8B88b8LZAzx2aFnaX4gey2E+RPDCuMG+OXOgfM42aacnYs7GqlD2bbLi7sqXJiYLwYt1xzwHzuqCll58JuVr7BbNtVhW0jJwTGifHKPQfM686aMrYu7DrlH8y2/b6wTeQMgvFhnKqaA+Z3a00J6xf2K1U3mG37/8L+TE4vGBfGp+o5YJ7X1xTwFVU/mG37rJxeMC6jmoOvaMLZS8P3PnMaBwV7yOmE8WBcRjUHzPdemlDY1L9MoxvMtlHnunKAcRjXHEzkIdmhGv1gtu2DcoBxGNccHKoJg819y2lhLrutsCdruqH/jMO45oD5H8nh2MM1Gt5R2BM0Ph6jCXxSREL/H6Pxwfy/QxMCa6lrZf+E31nYWwp7d2H3J5RzR2FP0nRCv+m/dewYd8afebgzoRx0MBFr6zfLPggPFPaKjrL2V9ruyb9oOqHf1jFjvPfvKIv5eCChvDdrAjhb9gH4SI/yDk8oD7+ER2q6oL8p/jWH9yjzIwnlna2Gg2+B9cnKZYBeJ4L82UXGMrHXarqgv9axYpz7zcFvjWWih0b75iyVfUD3GVDuXgnlnqLpgv5ax2rQock+CeUuVYP5tWydxmdg2M7MD41l31vYhpoO6Cf9tYzTD4eUzfxYfXh+rYaCh5b1k/yWgPL3qLj8SYB+WscoxL0gpfxGevBxvcfS2VsU5tnF9SPrN8G3NR3QT+uTNOR6HPN0i7GOg9RArAP6NYXzTmMddxW2niYb+kc/LePzzvBq5uZrKh4sjyjsVtk6u6fC4VDBumZ8qSYb+mcZF8Yz5pBqT2M96OMRahBc5bF0lGtAsfvIpxvr+qQmG/pnGZfTFQfzZb2WV8mVr6p8P54vG2eoPJKN4WTZmNFkMyMbsePJfJ0hG1adDKQqUe8iG99XPKep/NTHwo3nx2oyoV+WG92M42mKxzJvYNXJWBgWYamfWU+arPulL9JkQr8s4/Er2djGWN+FqoAqntR4YVnEeWNhv5ONH8hGo54UEVj7ZR1H5u1GxYNOsnvtVSFqggla3mp/JtsyAv5PNp6lycTaL+s4Mm8/UzzoZDtlpootFesS4heyc45sPF3pcEixuco3+cUq+8//EzGUO4Ebac0dSSb/BpX7x/xKbAxib+AcdIHKr/87lI61X9ZxBObvZYqH8TpfGalC1H8uGxfIDmF9ryhsC8XBUS0eZ/fG/Zi2VOns8+LCXlDYUwJ/jg/ARq3fL+rx9/gpc5q3XOXLF7/epTjoj+UImvFLCY9snT+rXkbKkbK9NOygNKwnmIsDy9++sA/JfjRvMW6Z/Fdhbyzs0QpjsbGu1BO+HYz1HqkGwJ5lbMfwsU0NY/BR2QZ17wFlcqfv71QGGF81Zru9sKNUBkEf5Jext7H8jyoN5s/iO2/d4+5LFS+Klhh2rC3vVhrW7aEte/zZwsI+VdiVhX1Z9dgl4Ul9gMp1Lx8ynt69Tl+3lI3U7TXm7zrFkz3mYV1EPat0LpWNzTt+jyCObJX1j4U9TvWE3Y1jVb5gHqj54t5cNqzj18ms4ql9IE8iyVu++r6hdDYw1n2iSgeef5fdOWrcdklhr1O5LDnRWMYTlc43jHVnzUCQe/djY9m4Qeng14vnV+zT9YUqRfF4NRe2xRDzctnmgHGzHJ50Y51H2nyVMpFb1I+SjZuUh2sUL+qNNDnMyMY1yoN1Hq266UnuNXXofm031ysPnobORq5xs86jVTc9yS1q6ycu9oChH1fLsZBr3KzzWOsntZXblIdb5FjINW655jGJuoj6ZuUhVznTxkSNf6PuiAWQaxmTCttUvHzNqjzq5lCC0zZuX2/Ysq1Un3wodRm3LEyaqHNsDVrga/fMwn5U2E9VetvdPuRn2FPGAYvTSo6+cezfUePJ3DuucauESRP1Ko0OvmrZGyZTLGK+T3HQ1j+07MTWn22q0neDdMp4/41qeTjKcaucuqypmwRRO/G7QIA4O+EiGivofrAL8cXCdld5oPIJ5dvDnxrqIupcEe5TnaL6wZPsOypvP/MEPb6we1Qtl6sMdL6wsINV7XZlrnEbZ6aC1dRF1LkCNuY6xOmEK06I+VWF/USjhxdN8h7iTI/Iq9i2zDVutQi8mVvUD8pGrkDoOdeGnLK9qbDdVGaHHTc8TVmObFvYMcrb11xlWefRqpue5Ba19bjV6gjVzU7KwzKV9/yOU/1eoniq4lfNdbIrlYdc42adx1q7N+DLa3E9/LTSIYDLH431t42tuTeqOeBZSESlVYnGuOUI7PNpY/1WH/CRwBahpVPLlM57jXW3jdgVofcV6wT72u9Temrm9yqdZca6s24t596n5jY0hw6xb8Ghn1ReRJ6h8mtuM5Unckwqp3Vvlx3WzK9WMw8hEMXHVO6W/Id652gJgR0WHIse3iqTF1R8nFkacNk4ZGvR8sRFLw8oI1WcXnEtKPba+2xhT239nrt4nKxxzX9Rq6wdWr8PvVEdw1kqdzaGnQA2AdbZLEeqyMVOPJJZlaelv2v9npzj52tNrJIV6h36YRCUVfvERmcq/uuHTypPCsJepSSfjDWOtGuxt5qRVyotiWqs8R7y1Va9lvyKZ6oBWNdVo7ZZTW6+8n9QM+YAy/E+NY8qDl9WqP7wJMO/wnKlvwlw1J5dLBWRXS9ViPpy1Z8Pq1x6TCo8AcnbcoXqTxP0ol1V76+75Zo878R+cFMeZ6s6z8euagBss3GkW8cBpF2LNF2k5HIfxXzU5aLEUPBiq+MgHqHpgyA/qSetVdnxqoAq1tTE3cjly5ETgrV8TNMHXn0fVj1BK1WcPWSFE7/zVM+nwiGaXjhl5HSwjvPCC3ttc8UT6YjA23UcONZuMQkvJxFia9dxbjB0U7tIWU/QaIORx9qxcvCVqfNOyG9U6qgW8AlrJyGq62AtlAPvUL0ju6Kj5Cd2qkMTYvmuytQRVUFncXohUQ4CJfEPnmPtQO2kLCMWG0fexNIgxjShYTk15NvjGE2Gs1IuiG29r9a4CPAiyfiuULlL0j5lJbQva13mmNs2O7R+tuqY3RerTIj0B40BPKu4eVHFJxanpm8Vtr8yBw90kuBhQZySw1Tt+xO6GrnnHhVerfydwa2RsAN1jeDvrIFveVyEv6TS9TS3FtDXyITNHvQKKWsH2AbEddHjkDQTliokQmKZl1MX6KzyMw+eoOcrX6P5NP61XMyTAgI8RrYsXf0MvVX2zY3wvqM8DaXTOJZvIGcSIS4g3ne5hI3uKnnwfVx5GkgMutfImXS4nZ7zwsjHlZk9lecrhS02a54/p3nwMolfd47rZehvT2WC4+UcfgNkNvVdjenkpcrzEokOs7g7nJShMafIfnXfmQyIR5jDBfYkJTKToRGnKnOiGqexPFfl7fNUTc3ICEK8OLHyH6uaGBROc2FdnOpYhS5ND8q3J1bMlk6O1MDO5EE+9dSndXRELu6NXZdQIb4bz5Tj9Ifj9RRRo8+o+43vSazwrXKcweBdmXo6/Z7QylgD35BQES+G48gw5TQPgn2SZsSqteCc6inrHXxzN5XjhHOY7HrDn37oVjFP2J8nVHKwHCcOliFcUrBq7k3DKtg5ofBL5PvRjo19ZNfdmcMK/2xC4W+Q49hghUDge4vuyKDw1H4FE19upbHgC+U+0U4ar5D9gdp3F2QmodC3yHHS4GltDbPxs36FHmEskO0/Pwp3cvD3smkQt9TNehV4obHAHOniHAe4WGB1UT2wuzD2lq2XAP5CjpMP622Z47oL2s9YEJm4/PTQyQmp/yxaJFbInBbbOxbPk41TWwU6Ti6+X9hdioc19Vwex7aod5aN78lx8oKgfyQbczpG1Dyyd1A8BBo8R46Tn+WygYPUnKgJQGJJkMmeouVrwnGGcbZsPI3/IOrYlMttfi7HqQaCTz6keOa0jKgXysZv5DjVwF71rOLZgv8g6s1k4xI5TnVcqniIp70AJyZrgJkVcoAXbYK98+a9WOVX4KYte6TK4Ob8ygOEr1SiFV3X+vXqluFPfJHKJV07Bt20MysbmyBqazqCqzVa+PA9p7BNVE469ePIcqtGD/uhhB7eo7DdFH5rHmFzU2OL1v9v1ePfkBqPLS32awmMeKVGD2NNcHU+mHxouTZFFq1RjvW1ssEDREcr/vTmfo0OAnt/U73vst3T+runq3pIskPOFLYxc4aqHeaoc06r3lEk+WEch431jhoNb5VtzIgEZRL1KBK581T7SGEPBLSHAecqWRVH9mwTfU3l9uWqMdpdrXY8Tflh3Bi/kEuwzAfzUrX//BLZxmmGHz7a8IMrVD1fVHy7PqB8sD4+UeXNilU1sgdb7VqsfHzA0I4vqlqWyDY+M/zw0YYfrDpzktXBiq/rvZQGb9AEWgn5hhinPdBqZ2q2WMbLupzaT9WxRLY2zfDDRxt+8B5VBxmgLpOtQxi7CNavxr8q7PqEusdh17fabYFxuiihbuZpgarBuqZ+IT98tPGHq7rtssTYnk57keLgbf/4DPWO045X/PbsizLUu0TVcJixPVvzSb1ZNqoIWkN73qd09oj4t7zxszVY5VfpKKD99CNmJyhmnPrBfFXx0mjNn3k/+9Q3yQbX0i9TXtgbtfqidLJJ4L9jPUkS0scqHV7gcB0gPhxf6StU7rWyn95es7LLgAB4IDBpjCEvfGyTIcbUr3LGDmeg1xf2PwH/PnSchtXJvP1UeVkkGysRdXA8si5I3HiG8rKrRgdxSr6utAA8iJYsCacXdpbKgOIh/L7Hn/HB2r2wl6tM9GR9UlEOlzf+RuW+8ihg3nKL2vJw4wFN7Gu9WLa1y5eVn6XGtnTb4UPq4UlmTa7DrsPJKvNnV/WStKBV/smy78Lc3+rnIA43lt1tS5UXXKEtW6m/aBewqWwdOU/5WWpsS7ftO6AO1pH3GspEJEcVtrVGy9atei0fQvo5aN28r6HMUYh6d2M7vtUugHXeLYYCeMxbLhcM4lDZOtNp9OXRfcrfVrZkOvhhVHGSF8PTWu2IbTv93bZPmYyTZe677VDlxXIYhB3WWciPjYW8Snl5gbEdnfalPmWvp/gIQDjwEH2qLjfmaQftoV0x/aDf6/UpMzWiP/YC5WW5sR2v7SzkU8ZCcq+r2Rn4rbEtGP4R/YIFfj6yrF8pz05MFdAu2hfTn8/3KYvxSvFrYb5ybunhuGVNdDRvm9m6tuLt/xHKy97GtrBtdkCfMndT3FEwuxm5l1a5oX20M2Z8dutT1gGyH5XvrbwcYGzHiu6CyCJqddx5hfLzmcg2MCHv6lMWH7qYpxrOQk2Js007aW9o3xiHfg8hxi9W2J9Rfn4Q2Ya2HdOrsPOMhf238sPX2ccU9kFjy2tQBoOYdB/EMWla4HjaS7tD+3jggLIYx5AtROaF+cl9kriN7A/XN/YqcKmxMAahqm0uHL6/p/4DzQnezICf56l0ucL6QcLJpuZOp92hiVwZj0FLxhmV49pvrpmP56saYt972sYafLW3YudbPXkPz5cNnNerTDNHgwmNRtAdnkx4CZ7dskFX6XlXOEHDYT+Xq2IXqLkwf5zqheSA/0uVy5Z+8ATetWXkZEE0LF1+IrtbxTA4QeUDt57i4WT7Jb3+AoFbw/nS6W1UP/B/CGn/B5UHjqj/SaXn41dUuoR2L2cWqfxW5N/gaB/rUTgI+hHS3xC/kFHzOdm0N2xJpXcnFHyK6gWf/JD1IRce1lE6RLq6tEf5hJLAnwPBE8u7+zSTb5oPKQ/04w8KWzJafUuqYHvZt/Hu0JBlIx21HCG37dWqD6EviG9THgbFVUa41w/5+2cpD29ThqfbCGGpc6bsmjsqpJJjEyrAzTL1elEuQvrBEbFlDdcLy/F7p71XeaA/IUffx6oecFM+ZdyCIvbyj1JCALAMqUOmrpBdj6BPeSCxR9fdluNyRJujAuq7XOOHl9uU08wfKoKYk6pexs8/SeNjfYV9MPdVPo6Tfbxo6y7KR8gJMXWur/FBEKUUlwgs6ubOs5UesIW9zsdrPCxWWBtzviwRdela2cbqc8rLUwLrfabGAxGtUi78YstlcDT7ZmKl2Nc1HmY0vG1V7LfyFh+TZ5sHBzsiVVw2uCmg/hmNHoR4mtJ0xbg9VwYWFXZnYuVVnjYOYkbD21bVQQtbd6TDHubUz/3OKvxm2lygeor66Up/WP6nEnh/hga8S6NnRsPbtVzV8oYBdbNLVHVC1eWqp6jfpTQ9Ef1g40EVDNul+KTSn2jbqp7kuEk9iBsG/B054O9WtVTdPyupejhE5fj1ZZioOeV5c+tXK6s0ekJSKxCOt6qLszAo/sbiiuum7M0D/p0lBUUqKXr4pQK2YUP2k3EeSrnONI790KsC/g1HyjmDLHaz04C/Y+lRZfhh+hVy9B8yTrlJ0QNjlsXHKHX/dXuNHp5UIWFpD1Z1DLuYYI1/F8LBGt53xqfKb4t+oIeU7eLjlMh2Sov+OU4np3M1vH1V5oFcMaTuJaqOczS87+dqfJwiu6bQ43ZK4MiEyjk2XqTxcYTC2rmTquHUIfXOqBp2Uli/j9D4WKQ0t4IjZYRTqZCv8H52kMbLHgpr56mqBk7r+k0cDvpVhV0Y9mFqW47gkCkcJLu20KXpNDjU4byXsQ2Y+5Z5LNQfemxd1SEI21fE1fhflUmJvl3YO9VKtlMB9COkv1VEAYiF+kMOiPpZ9MUOXiCuSKjwJaoHn1BYewmSWSeneQu0n36E9PcTqgfoxKox9Bn1ovvyhMq44l6XiEYLFX6jgvuOuXyrRw3tpv0h/WQ8FqoeoBNrSATs5YogJar+bqoXX1V427kp3TRh096YEAlfVb1AL1atHR9aCUED7zBWwlZSXZ7SbTguJm50TB+erGZAO0O279rGONTt+By9xPSh09Dpo0Mqeb2xglUaHg95XIQcRnQaDkfj3h0YBu2jnTH9qvKwKYXKNbfMWDgvKXWNbmS53MmpF/uhdXtq0x78H2JP5eh/Ha7Z9QLdhL7kdtuyYYW3c8BYCv831Ru+di0Dd3th/6rxf21v0moH7bE8cOrqtdcG/Vh0h14Hbk8+11gwNor84KkQhcl68YFdAw5N9tHoXibXa9V3ouxxMejvc1R/Ui4PDLwFY70UwH3Eur0g9oNcKiknpRg3oAl1tbSwV6qM8Zza/4e1ynllq9wzlJ4P/Z5Wf5sA/e8Xw2+Yvb+zoO7HtnU7ru2g0gS+qzL71UmyP3FxHd1D818mWePyNc+TESd2xpYg4EwWx+XEBeEiMtGEGCte8nDO4RYHt7pZHuRc8/KBeJ3K7b4mwJigI0saEnT70V5/wYDGbH112vPUPPhKtr6c1N2uUTOWHN2gI0t/0W3PB0JoWIFu4wk0Dr/cHPAkJf9hnQSZamepmmzEowAdWSNdrb7w0aluqwsmSZAeVDNhCUAeSaIj3aNmQ/vpB/25Ws0EHf1YNlbrt1PUz5CNs9VsGMiPq3QVPV3NhHbTfvrR1AdMG6ueeuoXt0jLYz9nfOU6wJOuKUuSs1rtnSTQk2Usvt2rsEsNBfHGP67QYlXD3ienVanbarntrla7TBGKGgB6stxhvLS7ILadLJv7V2ry2UBlGjRulFgdvVLtjlb9B7TaM+mgq9gxQr/zzgo2lm2wo0KpTgDkU9ldZcYF9rlJHmQ96Rs0ORe3yn93q76QPC6TBLqyjN1c5Kb24Yv11sdlmi7IsnBWy9rwdGAwN1RawPmbWsbBzSpNN+jK8q6Gjle2Rf1E2RhHMJS6gQCvaZmTB6uu5nTc3tLbWDaauh/q1BurruZ03Ba11efgRjlOfqy6evjq/8h+zH2rHCc/Vl3N6bgtaqsD+b1ynPxYdTWn49Qn9bVynPxYdTXvSW2lqkhDznSTpKu2qO+UDeuuieMMwqqrOR23RZ30tuk4mUnajWv/sPUEqylBX5xmYdXVnI7bor5NNqwnkY4zCKuu5nScuvwISZbjOLFYdTWX8LUtaqvfwpZynPxYdTW3FdgW9UrZyJIpyXG6sOpqLUcoS7J4Lnv6XrWTE/RkCTa0+sCmc+vE4huN83oTwo05zQE9WS5FrNZvp6gvlI1JvSvnjAernlbrN4eo65Y5wGk2Vj311K815NP18pNFJw/oCD1ZdNgz9B1BD+/JWaDjRGJ9sKLbdduFdD5h7y7sF7KxjxwnHauO0O3d7f/pXjZYQx7sp+YGiXTqAfrZTzYG6jYl/VdVWWOd6SA0W28vG/hymZLzpanBFZ16gH4suhua8wWOMRZOtE1r5FRnukE36Meiu2NCKniZsXDsBDlOPOjGqrmgnDacva80VsCnrYlpGZzxgV6sT2l0Gux7ZM1ph50r3wlxwkAn6MWqtajcnfizPpBQ2T/LcYaDTqwaQ5/RftcnJ1RIYHBrDhlnOkAfKQHtT5aBlOy32OWFPUGOszboAn2k6MvsHfq9xIqPl+OsDbpI0VVSwtNdZH8zxcjd8Ro5zhrQgyWnS9vQ4y5KZFlCA7BL5ThrsCTM6rRlygDZU29NbMi2cpxSByk6QodDs/mGOPcT1f19SsPvMTqQqgN0mC17BeK3ZkzClshxSh1YNYT+gm5YhV7DYmG/QnbukuOk6QD9PaSMpPi6YgvlOGU4sRQdZfPZX6ew3yU05JdynDWgB6uW0OE6ysBBCY3AXi3HWQN6SNHTQUqESDlXJTTgbDnO2qALq6bQY1Ja6/0TKseeL8dZG3SRoqv9lUDKJ+okOU5/0MfIVwCc/ljP6O+Th/l1BoM+0IlFX+iy7yn1oH1qYjA8TDa+IPf5cAaDPr4gG+jSFCPkfNk+Rdwbe4wcZzjoxHof9nxFwia5delxiBwnHPRiXYJsoQgONFZEPLMN5TjhoBd0Y9Hbgb0K7LemnpGN09TKkOQ4gaCX02RjJuYfz8r2ybEG+HOmG3Rj0dtsaAUbGSu4v7DHy3HiQTfox6K7jboL67X8eJZsECP4j3KceNCNNTb6WnrtJWprkMcfyXHsWPWzll57iXqxbJwrx7Fj1c9aeu0l6u1l4zw5jh2rfoL0eqPiF+u3yTN0OWmgH3QUq70bexXUCRmOLIcnZBvNen/MmTrQjyXrMnpdt/MPukW9mWxcIsdJx6qjebrtFvXGsnGlHCcdq47m6bZb1I+VjavkOOlYdTRPt92ifqJs3CzHSceqo3m6zbVjcY0cJ50sOuoW9eNkw3c+nBxYdTRPt92itjok+fLDyYFVR/N0m2v5cZscJ50sOuoW9SrZ8NwuTg6sOpqn225R3ygb1q1Ax+nEqqN5uu0W9Z2y4bfHnRxYgz/O022u5ceT5TjpDE190YeBy4+VsrG5HCedqJAHHczTba419VZynHSsOhq4praevVuvgDlOJ1YdDdQtMcpuUbyjNsnP/Sa5kwL6QUex2kOv82I+9npRvFjxLChsTzmOHfSzQPGg14EvihAdeK+FB7JxUrDqJ0ivS2QLKnK7EtMWOFMLukE/Ft0tCalgkbFw7JlynHjQjVVzi7oL67X8mC3sQtlYV44Tj1U3F6lHPL1+XnonKJ4HZbsN7Djo5kHF861ef/gncq3kkB0tBUAAAAAASUVORK5CYII=;" vertex="1" parent="1">
          <mxGeometry x="490" y="270" width="42.42" height="60" as="geometry" />
        </mxCell>
      </root>
    </mxGraphModel>
  </diagram>
</mxfile>
